HIERARCHY
ROOT Hips
{
  OFFSET 5.80788e-005 67.184 3.4734
  CHANNELS 6 Xposition Yposition Zposition Zrotation Xrotation Yrotation
  JOINT Chest
  {
    OFFSET 0 8.7983 -4.7612
    CHANNELS 3 Zrotation Xrotation Yrotation
    JOINT Chest2
    {
      OFFSET 0 8.0291 0.4195
      CHANNELS 3 Zrotation Xrotation Yrotation
      JOINT Chest3
      {
        OFFSET 0 9.9351 -2.2114
        CHANNELS 3 Zrotation Xrotation Yrotation
        JOINT Neck
        {
          OFFSET 0 22.3885 -0.4656
          CHANNELS 3 Zrotation Xrotation Yrotation
          JOINT Head
          {
            OFFSET -0.0001 12.643 3.4389
            CHANNELS 3 Zrotation Xrotation Yrotation
            End Site
            {
              OFFSET 0.0001 17.6655 0.5274
            }
          }
        }
        JOINT LeftCollar
        {
          OFFSET 2.2603 21.606 7.4023
          CHANNELS 3 Zrotation Xrotation Yrotation
          JOINT LeftShoulder
          {
            OFFSET 13.5163 -1.1332 -5.0146
            CHANNELS 3 Zrotation Xrotation Yrotation
            JOINT LeftElbow
            {
              OFFSET -0.0995 -28.05 -0.2431
              CHANNELS 3 Zrotation Xrotation Yrotation
              JOINT LeftWrist
              {
                OFFSET 0.0679 -23.3996 -0.1402
                CHANNELS 3 Zrotation Xrotation Yrotation
                JOINT LeftFinger1
                {
                  OFFSET 0.7932 -9.069 2.5189
                  CHANNELS 3 Zrotation Xrotation Yrotation
                  JOINT LeftFinger11
                  {
                    OFFSET -0.8272 -3.3923 0.5977
                    CHANNELS 3 Zrotation Xrotation Yrotation
                    JOINT LeftFinger12
                    {
                      OFFSET -0.5649 -2.3158 0.4082
                      CHANNELS 3 Zrotation Xrotation Yrotation
                      End Site
                      {
                        OFFSET -0.4919 -1.6479 0.2673
                      }
                    }
                  }
                }
                JOINT LeftFinger2
                {
                  OFFSET 0.9159 -9.2044 0.2193
                  CHANNELS 3 Zrotation Xrotation Yrotation
                  JOINT LeftFinger21
                  {
                    OFFSET 0.0117 -4.1944 -0.0248
                    CHANNELS 3 Zrotation Xrotation Yrotation
                    JOINT LeftFinger22
                    {
                      OFFSET 0.0071 -2.3249 -0.0142
                      CHANNELS 3 Zrotation Xrotation Yrotation
                      End Site
                      {
                        OFFSET -0.1475 -2.0882 0.0028
                      }
                    }
                  }
                }
                JOINT LeftFinger3
                {
                  OFFSET 0.6113 -8.7231 -2.0637
                  CHANNELS 3 Zrotation Xrotation Yrotation
                  JOINT LeftFinger31
                  {
                    OFFSET -0.1927 -3.8059 -0.2383
                    CHANNELS 3 Zrotation Xrotation Yrotation
                    JOINT LeftFinger32
                    {
                      OFFSET -0.1091 -2.1688 -0.1362
                      CHANNELS 3 Zrotation Xrotation Yrotation
                      End Site
                      {
                        OFFSET -0.2358 -1.9176 -0.0906
                      }
                    }
                  }
                }
                JOINT LeftFinger4
                {
                  OFFSET -0.6151 -8.0947 -3.5641
                  CHANNELS 3 Zrotation Xrotation Yrotation
                  JOINT LeftFinger41
                  {
                    OFFSET -0.4882 -2.341 -0.6462
                    CHANNELS 3 Zrotation Xrotation Yrotation
                    JOINT LeftFinger42
                    {
                      OFFSET -0.3575 -1.7167 -0.4742
                      CHANNELS 3 Zrotation Xrotation Yrotation
                      End Site
                      {
                        OFFSET -0.4187 -1.5237 -0.3496
                      }
                    }
                  }
                }
                JOINT LeftFinger0
                {
                  OFFSET -1.42 -1.8761 1.4223
                  CHANNELS 3 Zrotation Xrotation Yrotation
                  JOINT LeftFinger01
                  {
                    OFFSET -1.1471 -3.4929 2.6334
                    CHANNELS 3 Zrotation Xrotation Yrotation
                    JOINT LeftFinger02
                    {
                      OFFSET -0.823 -2.3 1.6571
                      CHANNELS 3 Zrotation Xrotation Yrotation
                      End Site
                      {
                        OFFSET -0.5822 -1.6914 1.1582
                      }
                    }
                  }
                }
              }
            }
          }
        }
        JOINT RightCollar
        {
          OFFSET -2.2603 21.606 7.4023
          CHANNELS 3 Zrotation Xrotation Yrotation
          JOINT RightShoulder
          {
            OFFSET -13.5187 -1.1334 -5.0155
            CHANNELS 3 Zrotation Xrotation Yrotation
            JOINT RightElbow
            {
              OFFSET 0.0994 -28.0499 -0.2431
              CHANNELS 3 Zrotation Xrotation Yrotation
              JOINT RightWrist
              {
                OFFSET -0.0679 -23.3996 -0.1402
                CHANNELS 3 Zrotation Xrotation Yrotation
                JOINT RightFinger1
                {
                  OFFSET -0.7932 -9.0691 2.5189
                  CHANNELS 3 Zrotation Xrotation Yrotation
                  JOINT RightFinger11
                  {
                    OFFSET 0.8272 -3.3923 0.5977
                    CHANNELS 3 Zrotation Xrotation Yrotation
                    JOINT RightFinger12
                    {
                      OFFSET 0.565 -2.3158 0.4082
                      CHANNELS 3 Zrotation Xrotation Yrotation
                      End Site
                      {
                        OFFSET 0.4919 -1.6479 0.2673
                      }
                    }
                  }
                }
                JOINT RightFinger2
                {
                  OFFSET -0.916 -9.2044 0.2193
                  CHANNELS 3 Zrotation Xrotation Yrotation
                  JOINT RightFinger21
                  {
                    OFFSET -0.0117 -4.1944 -0.0248
                    CHANNELS 3 Zrotation Xrotation Yrotation
                    JOINT RightFinger22
                    {
                      OFFSET -0.0071 -2.3249 -0.0142
                      CHANNELS 3 Zrotation Xrotation Yrotation
                      End Site
                      {
                        OFFSET 0.1475 -2.0882 0.0028
                      }
                    }
                  }
                }
                JOINT RightFinger3
                {
                  OFFSET -0.6113 -8.7231 -2.0637
                  CHANNELS 3 Zrotation Xrotation Yrotation
                  JOINT RightFinger31
                  {
                    OFFSET 0.1927 -3.8059 -0.2383
                    CHANNELS 3 Zrotation Xrotation Yrotation
                    JOINT RightFinger32
                    {
                      OFFSET 0.1091 -2.1688 -0.1362
                      CHANNELS 3 Zrotation Xrotation Yrotation
                      End Site
                      {
                        OFFSET 0.2358 -1.9176 -0.0906
                      }
                    }
                  }
                }
                JOINT RightFinger4
                {
                  OFFSET 0.6151 -8.0947 -3.564
                  CHANNELS 3 Zrotation Xrotation Yrotation
                  JOINT RightFinger41
                  {
                    OFFSET 0.4882 -2.341 -0.6462
                    CHANNELS 3 Zrotation Xrotation Yrotation
                    JOINT RightFinger42
                    {
                      OFFSET 0.3574 -1.7166 -0.4742
                      CHANNELS 3 Zrotation Xrotation Yrotation
                      End Site
                      {
                        OFFSET 0.4187 -1.5237 -0.3496
                      }
                    }
                  }
                }
                JOINT RightFinger0
                {
                  OFFSET 1.4199 -1.8761 1.4221
                  CHANNELS 3 Zrotation Xrotation Yrotation
                  JOINT RightFinger01
                  {
                    OFFSET 1.1472 -3.4929 2.6336
                    CHANNELS 3 Zrotation Xrotation Yrotation
                    JOINT RightFinger02
                    {
                      OFFSET 0.8229 -2.3 1.6571
                      CHANNELS 3 Zrotation Xrotation Yrotation
                      End Site
                      {
                        OFFSET 0.5822 -1.6914 1.1582
                      }
                    }
                  }
                }
              }
            }
          }
        }
      }
    }
  }
  JOINT RightHip
  {
    OFFSET -9.412 3.9771 -0.7758
    CHANNELS 3 Zrotation Xrotation Yrotation
    JOINT RightKnee
    {
      OFFSET -0.7531 -40.938 0
      CHANNELS 3 Zrotation Xrotation Yrotation
      JOINT RightAnkle
      {
        OFFSET 0 -40.1986 0
        CHANNELS 3 Zrotation Xrotation Yrotation
        JOINT RightToe
        {
          OFFSET 0 -4.4182 9.239
          CHANNELS 3 Zrotation Xrotation Yrotation
          End Site
          {
            OFFSET 0 0 6.1981
          }
        }
      }
    }
  }
  JOINT LeftHip
  {
    OFFSET 9.4119 3.9773 -0.7758
    CHANNELS 3 Zrotation Xrotation Yrotation
    JOINT LeftKnee
    {
      OFFSET 0.7532 -40.9383 0
      CHANNELS 3 Zrotation Xrotation Yrotation
      JOINT LeftAnkle
      {
        OFFSET 0 -40.1986 0
        CHANNELS 3 Zrotation Xrotation Yrotation
        JOINT LeftToe
        {
          OFFSET 0 -4.4182 9.239
          CHANNELS 3 Zrotation Xrotation Yrotation
          End Site
          {
            OFFSET 0 0 6.1981
          }
        }
      }
    }
  }
}
MOTION
Frames:	6
Frame Time:	0.0333333
5.80788e-005 67.184 3.4734 0 0 -0 0 0 -0 0 0 -0 0 0 -0 0 0 -0 -0 0 0.00300229 0 0 -12.5014 88.1196 14.2451 10.6914 -0.00160068 -0.00239207 0.000740045 -8.4365e-005 7.00714e-005 -9.52055e-007 9.93923e-017 -1.98785e-016 -1.59028e-015 9.93923e-017 -5.96354e-016 -1.59028e-015 -9.93923e-017 -5.96354e-016 -1.59028e-015 9.93923e-017 -1.98785e-016 -1.59028e-015 -0.0128176 0.00232552 8.52707e-005 9.93923e-017 5.96354e-016 -0 9.93923e-017 -1.98785e-016 -1.59028e-015 -0.0160551 0.00299681 0.000857156 -2.48481e-016 0 3.18055e-015 9.93923e-017 -1.98785e-016 -1.59028e-015 -0.0125865 0.0031206 0.00282719 0 1.98785e-016 -0 9.93923e-017 -1.98785e-016 -1.59028e-015 9.93923e-017 -5.96354e-016 -1.59028e-015 -9.93923e-017 -5.96354e-016 -1.59028e-015 -0.865644 0.16582 7.03859 -88.0329 10.2057 -10.5567 0.0015593 -0.00248883 -0.000788628 7.87605e-005 4.10553e-005 1.24965e-005 -3.97569e-016 -7.95139e-016 3.18055e-015 -1.98785e-016 -3.97569e-016 3.18055e-015 -1.98785e-016 0 3.18055e-015 -3.97569e-016 -7.95139e-016 3.18055e-015 0.0129473 0.00231697 -8.70038e-005 9.93923e-017 -7.95139e-016 1.59028e-015 -3.97569e-016 -7.95139e-016 3.18055e-015 0.0163314 0.00303369 -0.000872333 3.97569e-016 7.95139e-016 -3.18055e-015 -3.97569e-016 -7.95139e-016 3.18055e-015 0.0145763 0.00367772 -0.00326275 9.93923e-017 -3.97569e-016 -0 -3.97569e-016 -7.95139e-016 3.18055e-015 -1.98785e-016 -3.97569e-016 3.18055e-015 -1.98785e-016 0 3.18055e-015 3.42485 1.36937 -0.0640303 0.000136572 0.69354 0.00145564 -3.42573 -2.06297 -0.0607933 -3.19502e-024 0 -1.48106e-024 -3.42498 1.36123 0.0639712 -6.769e-005 0.712612 -0.0012277 3.42582 -2.07388 0.0612819 2.55305e-023 0 -2.31416e-026 
0.652405 13.7182 12.0278 -8.38072e-015 -11.0008 180 -0.0325983 1.11804 -0.0427377 -0.0643805 2.23608 -0.0848627 -0.0643807 2.23609 -0.0848631 -3.85801e-006 0.000129435 -4.99126e-006 7.24772e-010 5.63247e-006 0.00300229 -25.6102 -10.6213 -37.8416 61.2102 -23.7528 5.82446 -37.0175 6.52596 -67.6426 73.0036 -9.90511 24.3001 -2.07569e-006 -5.85096e-006 -4.18945e-006 -2.07569e-006 -4.64355e-007 -4.18945e-006 0 0 -4.77083e-015 -2.07569e-006 -5.85096e-006 -4.18945e-006 -0.0128298 0.00232756 8.67453e-005 1.49134e-006 6.84469e-007 -8.02162e-007 -2.07569e-006 -5.85096e-006 -4.18945e-006 -0.0160601 0.00299777 0.000852406 -5.83791e-007 1.97667e-006 -4.99172e-006 -2.07569e-006 -5.85096e-006 -4.18945e-006 -0.0126061 0.00313239 0.00282913 7.95139e-016 -3.18055e-015 2.78299e-015 -2.07569e-006 -5.85096e-006 -4.18945e-006 -2.07569e-006 -4.64355e-007 -4.18945e-006 0 0 -4.77083e-015 24.9427 -11.244 30.9077 -61.9825 -33.8732 -3.93467 39.8671 6.82328 67.4357 -73.1035 -8.11636 -23.5516 -6.68723e-007 -4.78129e-007 -1.61578e-006 4.77083e-015 9.54166e-015 -3.97569e-015 1.59028e-015 6.36111e-015 -6.36111e-015 -6.68723e-007 -4.78129e-007 -1.61578e-006 0.0129412 0.00232236 -8.46029e-005 1.59028e-015 6.36111e-015 5.56597e-015 -6.68723e-007 -4.78129e-007 -1.61578e-006 0.0163111 0.00302755 -0.000871846 4.8553e-031 3.18055e-015 -8.74653e-015 -6.68723e-007 -4.78129e-007 -1.61578e-006 0.0146069 0.003684 -0.00326432 -7.95139e-016 0 -8.74653e-015 -6.68723e-007 -4.78129e-007 -1.61578e-006 4.77083e-015 9.54166e-015 -3.97569e-015 1.59028e-015 6.36111e-015 -6.36111e-015 -128.462 -45.714 -142.981 -141.71 64.8887 144.086 4.20942 -9.56088 -7.72529 7.95139e-016 1.03266e-006 3.18055e-015 128.464 -45.7337 142.967 141.74 64.9123 -144.116 -4.21424 -9.55478 7.70312 2.53407e-006 2.54031e-006 -2.78692e-007 
0.652405 13.5238 11.7557 -8.22648e-015 -9.78233 180 -0.0335351 1.72425 -0.041708 -0.0658586 3.44854 -0.082462 -0.0658586 3.44854 -0.0824619 -0.0340068 0.077847 -0.0420519 -0.028573 0.0687613 0.00300234 -24.8506 -12.9145 -38.1167 61.2102 -23.7528 5.82444 -39.9126 6.92296 -68.5524 72.8664 -9.54788 22.7448 4.15256e-007 -6.08494e-007 1.67499e-006 1.06035e-006 1.66291e-006 -2.49462e-006 1.59028e-015 0 2.38542e-015 4.15256e-007 -6.08494e-007 1.67499e-006 -0.0128307 0.00232665 8.77534e-005 -3.53113e-031 1.27222e-014 1.59028e-015 4.15256e-007 -6.08494e-007 1.67499e-006 -0.0160625 0.00300399 0.000850067 0 3.18055e-015 -0 4.15256e-007 -6.08494e-007 1.67499e-006 -0.0125807 0.00312941 0.00282944 -1.59028e-015 -3.18055e-015 7.95139e-015 4.15256e-007 -6.08494e-007 1.67499e-006 1.06035e-006 1.66291e-006 -2.49462e-006 1.59028e-015 0 2.38542e-015 24.514 -13.2201 31.2973 -61.9826 -33.8733 -3.93469 41.8396 7.07484 67.2434 -73.2335 -7.83941 -22.4025 -8.82781e-032 -3.18055e-015 -1.59028e-015 1.76556e-031 6.36111e-015 -1.59028e-015 1.47637e-006 -8.20436e-008 -8.44681e-007 -8.82781e-032 -3.18055e-015 -1.59028e-015 0.0129457 0.00231341 -8.3156e-005 5.56597e-015 9.54166e-015 -7.95139e-016 -8.82781e-032 -3.18055e-015 -1.59028e-015 0.016345 0.00303208 -0.000872652 -7.95139e-016 3.18055e-015 4.37326e-015 -8.82781e-032 -3.18055e-015 -1.59028e-015 0.0145797 0.00368698 -0.0032644 4.0514e-006 -6.74324e-006 2.52377e-006 -8.82781e-032 -3.18055e-015 -1.59028e-015 1.76556e-031 6.36111e-015 -1.59028e-015 1.47637e-006 -8.20436e-008 -8.44681e-007 -127.263 -45.5871 -141.79 -142.175 64.5767 144.488 3.65095 -9.50413 -7.15775 4.22369e-007 3.24173e-007 -4.7053e-008 127.266 -45.6064 141.776 142.208 64.5999 -144.522 -3.65594 -9.49762 7.13518 7.25602e-008 -2.13822e-006 2.71631e-006 
0.652405 13.3329 11.4847 -8.0734e-015 -8.56419 180 -0.0344708 2.33211 -0.0406428 -0.0673682 4.66425 -0.0799796 -0.0673681 4.66424 -0.0799794 -0.0679678 0.156145 -0.0840705 -0.0571511 0.137546 0.00603813 -24.0897 -15.2256 -38.3643 61.2102 -23.7528 5.82446 -42.7998 7.30182 -69.585 72.738 -9.17522 21.1903 2.64834e-031 3.18055e-015 -4.77083e-015 -1.17097e-005 -3.02847e-006 -3.0475e-007 3.26127e-006 -1.93399e-006 -3.63312e-008 2.64834e-031 3.18055e-015 -4.77083e-015 -0.0128149 0.00233056 9.37505e-005 1.59028e-015 -9.54166e-015 5.56597e-015 2.64834e-031 3.18055e-015 -4.77083e-015 -0.0160454 0.00299076 0.000856511 0 0 -1.59028e-015 2.64834e-031 3.18055e-015 -4.77083e-015 -0.0126092 0.0031193 0.00283406 -3.18055e-015 -3.18055e-015 -0 2.64834e-031 3.18055e-015 -4.77083e-015 -1.17097e-005 -3.02847e-006 -3.0475e-007 3.26127e-006 -1.93399e-006 -3.63312e-008 24.093 -15.2092 31.6766 -61.9826 -33.8733 -3.93468 43.8234 7.31913 67.0384 -73.3691 -7.56434 -21.2514 7.95139e-016 3.18055e-015 1.19271e-015 7.23987e-006 -5.92554e-006 1.02439e-005 -2.38542e-015 -9.54166e-015 -1.98785e-015 7.95139e-016 3.18055e-015 1.19271e-015 0.0129233 0.00231772 -8.02064e-005 -7.95139e-016 -3.18055e-015 -7.95139e-015 7.95139e-016 3.18055e-015 1.19271e-015 0.016337 0.00302943 -0.000862566 1.59028e-015 6.36111e-015 5.96354e-015 7.95139e-016 3.18055e-015 1.19271e-015 0.0145886 0.00367813 -0.0032603 1.59028e-015 -3.18055e-015 -1.19271e-015 7.95139e-016 3.18055e-015 1.19271e-015 7.23987e-006 -5.92554e-006 1.02439e-005 -2.38542e-015 -9.54166e-015 -1.98785e-015 -126.071 -45.4421 -140.606 -142.63 64.2629 144.88 3.09125 -9.4529 -6.58945 8.44781e-007 -4.02338e-007 -9.50509e-008 126.074 -45.4613 140.591 142.666 64.2858 -144.918 -3.0964 -9.44595 6.56647 -8.44783e-007 -3.85502e-007 9.4944e-008 
0.652405 13.1454 11.2146 -7.92106e-015 -7.34412 180 -0.0354076 2.94156 -0.0395368 -0.0689162 5.88315 -0.077404 -0.0689162 5.88315 -0.077404 -0.10187 0.234119 -0.126042 -0.0857355 0.206316 0.00911791 -23.326 -17.5533 -38.584 61.2102 -23.7528 5.82446 -45.6712 7.6609 -70.7689 72.6186 -8.78461 19.6382 -5.12203e-007 -1.39126e-006 2.09695e-006 5.39771e-006 2.54719e-006 5.65607e-006 6.02879e-006 -4.26825e-006 5.26707e-006 -5.12203e-007 -1.39126e-006 2.09695e-006 -0.012791 0.00232359 9.41779e-005 -1.04919e-005 -4.02726e-008 -2.56704e-006 -5.12203e-007 -1.39126e-006 2.09695e-006 -0.0160256 0.00299356 0.000860836 3.74115e-006 3.89455e-006 1.02392e-005 -5.12203e-007 -1.39126e-006 2.09695e-006 -0.0125851 0.00311731 0.00283029 -4.80691e-006 2.46108e-006 4.70543e-006 -5.12203e-007 -1.39126e-006 2.09695e-006 5.39771e-006 2.54719e-006 5.65607e-006 6.02879e-006 -4.26825e-006 5.26707e-006 23.6798 -17.2107 32.0464 -61.9826 -33.8733 -3.9347 45.8175 7.55563 66.8208 -73.5104 -7.29123 -20.0987 1.47808e-006 -3.68519e-009 -8.34251e-007 -2.38542e-015 -3.18055e-015 -5.56597e-015 7.95139e-016 -6.36111e-015 -7.95139e-016 1.47808e-006 -3.68519e-009 -8.34251e-007 0.012947 0.00232514 -8.5405e-005 3.10344e-006 -4.36814e-006 1.6746e-006 1.47808e-006 -3.68519e-009 -8.34251e-007 0.0163301 0.00304256 -0.000876305 2.38542e-015 -1.27222e-014 -3.97569e-016 1.47808e-006 -3.68519e-009 -8.34251e-007 0.0145876 0.00368708 -0.00326827 1.47809e-006 -7.29651e-007 -8.34145e-007 1.47808e-006 -3.68519e-009 -8.34251e-007 -2.38542e-015 -3.18055e-015 -5.56597e-015 7.95139e-016 -6.36111e-015 -7.95139e-016 -124.887 -45.2795 -139.43 -143.076 63.9475 145.263 2.53047 -9.40717 -6.02049 2.20695e-031 -7.95139e-016 1.59028e-014 124.89 -45.2983 139.413 143.115 63.9699 -145.304 -2.53576 -9.39986 5.99711 3.61076e-007 1.80261e-007 -4.86192e-006 
0.652405 12.9613 10.9454 -7.76935e-015 -6.12236 180 -0.0363472 3.55227 -0.0384155 -0.0705067 7.10461 -0.0747846 -0.0705067 7.10461 -0.0747846 -0.135722 0.312335 -0.167975 -0.114325 0.275097 0.0122148 -22.5574 -19.8945 -38.7745 61.2102 -23.7528 5.82445 -48.5178 7.99901 -72.1391 72.5086 -8.37259 18.0904 1.40232e-006 -3.16388e-006 -9.0325e-007 1.40232e-006 1.3622e-006 -9.0325e-007 1.59028e-015 -1.27222e-014 3.18055e-015 1.40232e-006 -3.16388e-006 -9.0325e-007 -0.0128195 0.00233445 8.77181e-005 8.07657e-006 -2.28906e-007 2.14851e-006 1.40232e-006 -3.16388e-006 -9.0325e-007 -0.0160349 0.00300149 0.000853471 1.02081e-005 -3.04229e-006 6.07362e-006 1.40232e-006 -3.16388e-006 -9.0325e-007 -0.0126312 0.0031315 0.00283498 -3.18055e-015 -3.18055e-015 2.38542e-015 1.40232e-006 -3.16388e-006 -9.0325e-007 1.40232e-006 1.3622e-006 -9.0325e-007 1.59028e-015 -1.27222e-014 3.18055e-015 23.2737 -19.2228 32.4065 -61.9826 -33.8733 -3.93469 47.8204 7.78369 66.5906 -73.6573 -7.02024 -18.9445 0 0 -7.95139e-015 -7.37936e-006 5.17208e-006 -2.89033e-006 -7.95139e-016 -6.36111e-015 -2.38542e-015 0 0 -7.95139e-015 0.0129652 0.00232841 -8.32236e-005 -2.95612e-006 -2.37254e-008 1.65945e-006 0 0 -7.95139e-015 0.0163421 0.00303536 -0.000870363 -1.73192e-007 1.88609e-006 3.69264e-006 0 0 -7.95139e-015 0.0145769 0.0036769 -0.00326155 -1.47808e-006 1.42424e-006 8.29681e-007 0 0 -7.95139e-015 -7.37936e-006 5.17208e-006 -2.89033e-006 -7.95139e-016 -6.36111e-015 -2.38542e-015 -123.711 -45.0994 -138.261 -143.512 63.6304 145.636 1.96868 -9.36715 -5.45101 9.12182e-007 -9.4504e-007 4.71833e-006 123.714 -45.1178 138.244 143.554 63.6523 -145.681 -1.97412 -9.35936 5.42721 -1.66979e-014 1.51076e-014 3.18055e-015 
